<svg width="20" height="20" fill="none" xmlns="http://www.w3.org/2000/svg"><path d="M18.572 2.857h-5v-.714C13.572.959 12.612 0 11.429 0H8.572C7.389 0 6.429.96 6.429 2.143v.714h-5a.714.714 0 100 1.429h.777L3.572 19.35c.034.369.344.65.714.649h11.429c.37.002.68-.28.714-.65l1.367-15.064h.776a.714.714 0 100-1.429zM7.858 2.143c0-.395.32-.714.714-.714h2.857c.395 0 .714.32.714.714v.714H7.858v-.714zm-.66 15h-.054a.714.714 0 01-.715-.664l-.714-10a.716.716 0 111.428-.101l.715 10a.714.714 0 01-.66.765zm3.517-.715a.714.714 0 11-1.429 0v-10a.714.714 0 111.429 0v10zm3.571-9.949l-.714 10a.714.714 0 01-.714.664h-.052a.714.714 0 01-.663-.762v-.003l.715-10a.716.716 0 111.428.101z" fill="#D0A163"/></svg>